<?xml version="1.0" encoding="utf-8"?>
<!DOCTYPE svg PUBLIC "-//W3C//DTD SVG 1.1//EN" "http://www.w3.org/Graphics/SVG/1.1/DTD/svg11.dtd">
<svg version="1.1" id="Layer_1" xmlns="http://www.w3.org/2000/svg" xmlns:xlink="http://www.w3.org/1999/xlink" x="0px" y="0px"
width="250px" height="250px" viewBox="0 0 250 250" enable-background="new 0 0 250 250" xml:space="preserve">
<rect x="0" y="0" width="250" height="250" fill="rgb(255,255,255)" /><g transform="translate(20,20)"><g transform="translate(80,0) scale(0.1,0.1)"><g transform="" style="fill: rgb(0, 0, 0);">
<g>
	<circle cx="50" cy="50" r="30"/>
</g>
</g></g><g transform="translate(90,0) scale(0.1,0.1)"><g transform="" style="fill: rgb(0, 0, 0);">
<g>
	<circle cx="50" cy="50" r="30"/>
</g>
</g></g><g transform="translate(120,0) scale(0.1,0.1)"><g transform="" style="fill: rgb(0, 0, 0);">
<g>
	<circle cx="50" cy="50" r="30"/>
</g>
</g></g><g transform="translate(110,10) scale(0.1,0.1)"><g transform="" style="fill: rgb(0, 0, 0);">
<g>
	<circle cx="50" cy="50" r="30"/>
</g>
</g></g><g transform="translate(80,30) scale(0.1,0.1)"><g transform="" style="fill: rgb(0, 0, 0);">
<g>
	<circle cx="50" cy="50" r="30"/>
</g>
</g></g><g transform="translate(100,30) scale(0.1,0.1)"><g transform="" style="fill: rgb(0, 0, 0);">
<g>
	<circle cx="50" cy="50" r="30"/>
</g>
</g></g><g transform="translate(110,30) scale(0.1,0.1)"><g transform="" style="fill: rgb(0, 0, 0);">
<g>
	<circle cx="50" cy="50" r="30"/>
</g>
</g></g><g transform="translate(120,30) scale(0.1,0.1)"><g transform="" style="fill: rgb(0, 0, 0);">
<g>
	<circle cx="50" cy="50" r="30"/>
</g>
</g></g><g transform="translate(80,40) scale(0.1,0.1)"><g transform="" style="fill: rgb(0, 0, 0);">
<g>
	<circle cx="50" cy="50" r="30"/>
</g>
</g></g><g transform="translate(120,40) scale(0.1,0.1)"><g transform="" style="fill: rgb(0, 0, 0);">
<g>
	<circle cx="50" cy="50" r="30"/>
</g>
</g></g><g transform="translate(80,50) scale(0.1,0.1)"><g transform="" style="fill: rgb(0, 0, 0);">
<g>
	<circle cx="50" cy="50" r="30"/>
</g>
</g></g><g transform="translate(100,50) scale(0.1,0.1)"><g transform="" style="fill: rgb(0, 0, 0);">
<g>
	<circle cx="50" cy="50" r="30"/>
</g>
</g></g><g transform="translate(110,50) scale(0.1,0.1)"><g transform="" style="fill: rgb(0, 0, 0);">
<g>
	<circle cx="50" cy="50" r="30"/>
</g>
</g></g><g transform="translate(80,60) scale(0.1,0.1)"><g transform="" style="fill: rgb(0, 0, 0);">
<g>
	<circle cx="50" cy="50" r="30"/>
</g>
</g></g><g transform="translate(100,60) scale(0.1,0.1)"><g transform="" style="fill: rgb(0, 0, 0);">
<g>
	<circle cx="50" cy="50" r="30"/>
</g>
</g></g><g transform="translate(120,60) scale(0.1,0.1)"><g transform="" style="fill: rgb(0, 0, 0);">
<g>
	<circle cx="50" cy="50" r="30"/>
</g>
</g></g><g transform="translate(80,70) scale(0.1,0.1)"><g transform="" style="fill: rgb(0, 0, 0);">
<g>
	<circle cx="50" cy="50" r="30"/>
</g>
</g></g><g transform="translate(110,70) scale(0.1,0.1)"><g transform="" style="fill: rgb(0, 0, 0);">
<g>
	<circle cx="50" cy="50" r="30"/>
</g>
</g></g><g transform="translate(120,70) scale(0.1,0.1)"><g transform="" style="fill: rgb(0, 0, 0);">
<g>
	<circle cx="50" cy="50" r="30"/>
</g>
</g></g><g transform="translate(0,80) scale(0.1,0.1)"><g transform="" style="fill: rgb(0, 0, 0);">
<g>
	<circle cx="50" cy="50" r="30"/>
</g>
</g></g><g transform="translate(40,80) scale(0.1,0.1)"><g transform="" style="fill: rgb(0, 0, 0);">
<g>
	<circle cx="50" cy="50" r="30"/>
</g>
</g></g><g transform="translate(60,80) scale(0.1,0.1)"><g transform="" style="fill: rgb(0, 0, 0);">
<g>
	<circle cx="50" cy="50" r="30"/>
</g>
</g></g><g transform="translate(70,80) scale(0.1,0.1)"><g transform="" style="fill: rgb(0, 0, 0);">
<g>
	<circle cx="50" cy="50" r="30"/>
</g>
</g></g><g transform="translate(80,80) scale(0.1,0.1)"><g transform="" style="fill: rgb(0, 0, 0);">
<g>
	<circle cx="50" cy="50" r="30"/>
</g>
</g></g><g transform="translate(100,80) scale(0.1,0.1)"><g transform="" style="fill: rgb(0, 0, 0);">
<g>
	<circle cx="50" cy="50" r="30"/>
</g>
</g></g><g transform="translate(110,80) scale(0.1,0.1)"><g transform="" style="fill: rgb(0, 0, 0);">
<g>
	<circle cx="50" cy="50" r="30"/>
</g>
</g></g><g transform="translate(130,80) scale(0.1,0.1)"><g transform="" style="fill: rgb(0, 0, 0);">
<g>
	<circle cx="50" cy="50" r="30"/>
</g>
</g></g><g transform="translate(140,80) scale(0.1,0.1)"><g transform="" style="fill: rgb(0, 0, 0);">
<g>
	<circle cx="50" cy="50" r="30"/>
</g>
</g></g><g transform="translate(150,80) scale(0.1,0.1)"><g transform="" style="fill: rgb(0, 0, 0);">
<g>
	<circle cx="50" cy="50" r="30"/>
</g>
</g></g><g transform="translate(160,80) scale(0.1,0.1)"><g transform="" style="fill: rgb(0, 0, 0);">
<g>
	<circle cx="50" cy="50" r="30"/>
</g>
</g></g><g transform="translate(170,80) scale(0.1,0.1)"><g transform="" style="fill: rgb(0, 0, 0);">
<g>
	<circle cx="50" cy="50" r="30"/>
</g>
</g></g><g transform="translate(200,80) scale(0.1,0.1)"><g transform="" style="fill: rgb(0, 0, 0);">
<g>
	<circle cx="50" cy="50" r="30"/>
</g>
</g></g><g transform="translate(10,90) scale(0.1,0.1)"><g transform="" style="fill: rgb(0, 0, 0);">
<g>
	<circle cx="50" cy="50" r="30"/>
</g>
</g></g><g transform="translate(20,90) scale(0.1,0.1)"><g transform="" style="fill: rgb(0, 0, 0);">
<g>
	<circle cx="50" cy="50" r="30"/>
</g>
</g></g><g transform="translate(40,90) scale(0.1,0.1)"><g transform="" style="fill: rgb(0, 0, 0);">
<g>
	<circle cx="50" cy="50" r="30"/>
</g>
</g></g><g transform="translate(90,90) scale(0.1,0.1)"><g transform="" style="fill: rgb(0, 0, 0);">
<g>
	<circle cx="50" cy="50" r="30"/>
</g>
</g></g><g transform="translate(120,90) scale(0.1,0.1)"><g transform="" style="fill: rgb(0, 0, 0);">
<g>
	<circle cx="50" cy="50" r="30"/>
</g>
</g></g><g transform="translate(140,90) scale(0.1,0.1)"><g transform="" style="fill: rgb(0, 0, 0);">
<g>
	<circle cx="50" cy="50" r="30"/>
</g>
</g></g><g transform="translate(150,90) scale(0.1,0.1)"><g transform="" style="fill: rgb(0, 0, 0);">
<g>
	<circle cx="50" cy="50" r="30"/>
</g>
</g></g><g transform="translate(160,90) scale(0.1,0.1)"><g transform="" style="fill: rgb(0, 0, 0);">
<g>
	<circle cx="50" cy="50" r="30"/>
</g>
</g></g><g transform="translate(170,90) scale(0.1,0.1)"><g transform="" style="fill: rgb(0, 0, 0);">
<g>
	<circle cx="50" cy="50" r="30"/>
</g>
</g></g><g transform="translate(180,90) scale(0.1,0.1)"><g transform="" style="fill: rgb(0, 0, 0);">
<g>
	<circle cx="50" cy="50" r="30"/>
</g>
</g></g><g transform="translate(190,90) scale(0.1,0.1)"><g transform="" style="fill: rgb(0, 0, 0);">
<g>
	<circle cx="50" cy="50" r="30"/>
</g>
</g></g><g transform="translate(0,100) scale(0.1,0.1)"><g transform="" style="fill: rgb(0, 0, 0);">
<g>
	<circle cx="50" cy="50" r="30"/>
</g>
</g></g><g transform="translate(30,100) scale(0.1,0.1)"><g transform="" style="fill: rgb(0, 0, 0);">
<g>
	<circle cx="50" cy="50" r="30"/>
</g>
</g></g><g transform="translate(40,100) scale(0.1,0.1)"><g transform="" style="fill: rgb(0, 0, 0);">
<g>
	<circle cx="50" cy="50" r="30"/>
</g>
</g></g><g transform="translate(50,100) scale(0.1,0.1)"><g transform="" style="fill: rgb(0, 0, 0);">
<g>
	<circle cx="50" cy="50" r="30"/>
</g>
</g></g><g transform="translate(60,100) scale(0.1,0.1)"><g transform="" style="fill: rgb(0, 0, 0);">
<g>
	<circle cx="50" cy="50" r="30"/>
</g>
</g></g><g transform="translate(80,100) scale(0.1,0.1)"><g transform="" style="fill: rgb(0, 0, 0);">
<g>
	<circle cx="50" cy="50" r="30"/>
</g>
</g></g><g transform="translate(90,100) scale(0.1,0.1)"><g transform="" style="fill: rgb(0, 0, 0);">
<g>
	<circle cx="50" cy="50" r="30"/>
</g>
</g></g><g transform="translate(110,100) scale(0.1,0.1)"><g transform="" style="fill: rgb(0, 0, 0);">
<g>
	<circle cx="50" cy="50" r="30"/>
</g>
</g></g><g transform="translate(130,100) scale(0.1,0.1)"><g transform="" style="fill: rgb(0, 0, 0);">
<g>
	<circle cx="50" cy="50" r="30"/>
</g>
</g></g><g transform="translate(140,100) scale(0.1,0.1)"><g transform="" style="fill: rgb(0, 0, 0);">
<g>
	<circle cx="50" cy="50" r="30"/>
</g>
</g></g><g transform="translate(160,100) scale(0.1,0.1)"><g transform="" style="fill: rgb(0, 0, 0);">
<g>
	<circle cx="50" cy="50" r="30"/>
</g>
</g></g><g transform="translate(190,100) scale(0.1,0.1)"><g transform="" style="fill: rgb(0, 0, 0);">
<g>
	<circle cx="50" cy="50" r="30"/>
</g>
</g></g><g transform="translate(0,110) scale(0.1,0.1)"><g transform="" style="fill: rgb(0, 0, 0);">
<g>
	<circle cx="50" cy="50" r="30"/>
</g>
</g></g><g transform="translate(10,110) scale(0.1,0.1)"><g transform="" style="fill: rgb(0, 0, 0);">
<g>
	<circle cx="50" cy="50" r="30"/>
</g>
</g></g><g transform="translate(20,110) scale(0.1,0.1)"><g transform="" style="fill: rgb(0, 0, 0);">
<g>
	<circle cx="50" cy="50" r="30"/>
</g>
</g></g><g transform="translate(40,110) scale(0.1,0.1)"><g transform="" style="fill: rgb(0, 0, 0);">
<g>
	<circle cx="50" cy="50" r="30"/>
</g>
</g></g><g transform="translate(70,110) scale(0.1,0.1)"><g transform="" style="fill: rgb(0, 0, 0);">
<g>
	<circle cx="50" cy="50" r="30"/>
</g>
</g></g><g transform="translate(130,110) scale(0.1,0.1)"><g transform="" style="fill: rgb(0, 0, 0);">
<g>
	<circle cx="50" cy="50" r="30"/>
</g>
</g></g><g transform="translate(150,110) scale(0.1,0.1)"><g transform="" style="fill: rgb(0, 0, 0);">
<g>
	<circle cx="50" cy="50" r="30"/>
</g>
</g></g><g transform="translate(160,110) scale(0.1,0.1)"><g transform="" style="fill: rgb(0, 0, 0);">
<g>
	<circle cx="50" cy="50" r="30"/>
</g>
</g></g><g transform="translate(0,120) scale(0.1,0.1)"><g transform="" style="fill: rgb(0, 0, 0);">
<g>
	<circle cx="50" cy="50" r="30"/>
</g>
</g></g><g transform="translate(20,120) scale(0.1,0.1)"><g transform="" style="fill: rgb(0, 0, 0);">
<g>
	<circle cx="50" cy="50" r="30"/>
</g>
</g></g><g transform="translate(40,120) scale(0.1,0.1)"><g transform="" style="fill: rgb(0, 0, 0);">
<g>
	<circle cx="50" cy="50" r="30"/>
</g>
</g></g><g transform="translate(50,120) scale(0.1,0.1)"><g transform="" style="fill: rgb(0, 0, 0);">
<g>
	<circle cx="50" cy="50" r="30"/>
</g>
</g></g><g transform="translate(60,120) scale(0.1,0.1)"><g transform="" style="fill: rgb(0, 0, 0);">
<g>
	<circle cx="50" cy="50" r="30"/>
</g>
</g></g><g transform="translate(70,120) scale(0.1,0.1)"><g transform="" style="fill: rgb(0, 0, 0);">
<g>
	<circle cx="50" cy="50" r="30"/>
</g>
</g></g><g transform="translate(90,120) scale(0.1,0.1)"><g transform="" style="fill: rgb(0, 0, 0);">
<g>
	<circle cx="50" cy="50" r="30"/>
</g>
</g></g><g transform="translate(120,120) scale(0.1,0.1)"><g transform="" style="fill: rgb(0, 0, 0);">
<g>
	<circle cx="50" cy="50" r="30"/>
</g>
</g></g><g transform="translate(130,120) scale(0.1,0.1)"><g transform="" style="fill: rgb(0, 0, 0);">
<g>
	<circle cx="50" cy="50" r="30"/>
</g>
</g></g><g transform="translate(190,120) scale(0.1,0.1)"><g transform="" style="fill: rgb(0, 0, 0);">
<g>
	<circle cx="50" cy="50" r="30"/>
</g>
</g></g><g transform="translate(80,130) scale(0.1,0.1)"><g transform="" style="fill: rgb(0, 0, 0);">
<g>
	<circle cx="50" cy="50" r="30"/>
</g>
</g></g><g transform="translate(90,130) scale(0.1,0.1)"><g transform="" style="fill: rgb(0, 0, 0);">
<g>
	<circle cx="50" cy="50" r="30"/>
</g>
</g></g><g transform="translate(160,130) scale(0.1,0.1)"><g transform="" style="fill: rgb(0, 0, 0);">
<g>
	<circle cx="50" cy="50" r="30"/>
</g>
</g></g><g transform="translate(170,130) scale(0.1,0.1)"><g transform="" style="fill: rgb(0, 0, 0);">
<g>
	<circle cx="50" cy="50" r="30"/>
</g>
</g></g><g transform="translate(190,130) scale(0.1,0.1)"><g transform="" style="fill: rgb(0, 0, 0);">
<g>
	<circle cx="50" cy="50" r="30"/>
</g>
</g></g><g transform="translate(200,130) scale(0.1,0.1)"><g transform="" style="fill: rgb(0, 0, 0);">
<g>
	<circle cx="50" cy="50" r="30"/>
</g>
</g></g><g transform="translate(80,140) scale(0.1,0.1)"><g transform="" style="fill: rgb(0, 0, 0);">
<g>
	<circle cx="50" cy="50" r="30"/>
</g>
</g></g><g transform="translate(90,140) scale(0.1,0.1)"><g transform="" style="fill: rgb(0, 0, 0);">
<g>
	<circle cx="50" cy="50" r="30"/>
</g>
</g></g><g transform="translate(110,140) scale(0.1,0.1)"><g transform="" style="fill: rgb(0, 0, 0);">
<g>
	<circle cx="50" cy="50" r="30"/>
</g>
</g></g><g transform="translate(130,140) scale(0.1,0.1)"><g transform="" style="fill: rgb(0, 0, 0);">
<g>
	<circle cx="50" cy="50" r="30"/>
</g>
</g></g><g transform="translate(140,140) scale(0.1,0.1)"><g transform="" style="fill: rgb(0, 0, 0);">
<g>
	<circle cx="50" cy="50" r="30"/>
</g>
</g></g><g transform="translate(150,140) scale(0.1,0.1)"><g transform="" style="fill: rgb(0, 0, 0);">
<g>
	<circle cx="50" cy="50" r="30"/>
</g>
</g></g><g transform="translate(160,140) scale(0.1,0.1)"><g transform="" style="fill: rgb(0, 0, 0);">
<g>
	<circle cx="50" cy="50" r="30"/>
</g>
</g></g><g transform="translate(170,140) scale(0.1,0.1)"><g transform="" style="fill: rgb(0, 0, 0);">
<g>
	<circle cx="50" cy="50" r="30"/>
</g>
</g></g><g transform="translate(190,140) scale(0.1,0.1)"><g transform="" style="fill: rgb(0, 0, 0);">
<g>
	<circle cx="50" cy="50" r="30"/>
</g>
</g></g><g transform="translate(110,150) scale(0.1,0.1)"><g transform="" style="fill: rgb(0, 0, 0);">
<g>
	<circle cx="50" cy="50" r="30"/>
</g>
</g></g><g transform="translate(130,150) scale(0.1,0.1)"><g transform="" style="fill: rgb(0, 0, 0);">
<g>
	<circle cx="50" cy="50" r="30"/>
</g>
</g></g><g transform="translate(150,150) scale(0.1,0.1)"><g transform="" style="fill: rgb(0, 0, 0);">
<g>
	<circle cx="50" cy="50" r="30"/>
</g>
</g></g><g transform="translate(160,150) scale(0.1,0.1)"><g transform="" style="fill: rgb(0, 0, 0);">
<g>
	<circle cx="50" cy="50" r="30"/>
</g>
</g></g><g transform="translate(190,150) scale(0.1,0.1)"><g transform="" style="fill: rgb(0, 0, 0);">
<g>
	<circle cx="50" cy="50" r="30"/>
</g>
</g></g><g transform="translate(80,160) scale(0.1,0.1)"><g transform="" style="fill: rgb(0, 0, 0);">
<g>
	<circle cx="50" cy="50" r="30"/>
</g>
</g></g><g transform="translate(110,160) scale(0.1,0.1)"><g transform="" style="fill: rgb(0, 0, 0);">
<g>
	<circle cx="50" cy="50" r="30"/>
</g>
</g></g><g transform="translate(120,160) scale(0.1,0.1)"><g transform="" style="fill: rgb(0, 0, 0);">
<g>
	<circle cx="50" cy="50" r="30"/>
</g>
</g></g><g transform="translate(150,160) scale(0.1,0.1)"><g transform="" style="fill: rgb(0, 0, 0);">
<g>
	<circle cx="50" cy="50" r="30"/>
</g>
</g></g><g transform="translate(160,160) scale(0.1,0.1)"><g transform="" style="fill: rgb(0, 0, 0);">
<g>
	<circle cx="50" cy="50" r="30"/>
</g>
</g></g><g transform="translate(90,170) scale(0.1,0.1)"><g transform="" style="fill: rgb(0, 0, 0);">
<g>
	<circle cx="50" cy="50" r="30"/>
</g>
</g></g><g transform="translate(100,170) scale(0.1,0.1)"><g transform="" style="fill: rgb(0, 0, 0);">
<g>
	<circle cx="50" cy="50" r="30"/>
</g>
</g></g><g transform="translate(130,170) scale(0.1,0.1)"><g transform="" style="fill: rgb(0, 0, 0);">
<g>
	<circle cx="50" cy="50" r="30"/>
</g>
</g></g><g transform="translate(140,170) scale(0.1,0.1)"><g transform="" style="fill: rgb(0, 0, 0);">
<g>
	<circle cx="50" cy="50" r="30"/>
</g>
</g></g><g transform="translate(160,170) scale(0.1,0.1)"><g transform="" style="fill: rgb(0, 0, 0);">
<g>
	<circle cx="50" cy="50" r="30"/>
</g>
</g></g><g transform="translate(170,170) scale(0.1,0.1)"><g transform="" style="fill: rgb(0, 0, 0);">
<g>
	<circle cx="50" cy="50" r="30"/>
</g>
</g></g><g transform="translate(190,170) scale(0.1,0.1)"><g transform="" style="fill: rgb(0, 0, 0);">
<g>
	<circle cx="50" cy="50" r="30"/>
</g>
</g></g><g transform="translate(200,170) scale(0.1,0.1)"><g transform="" style="fill: rgb(0, 0, 0);">
<g>
	<circle cx="50" cy="50" r="30"/>
</g>
</g></g><g transform="translate(90,180) scale(0.1,0.1)"><g transform="" style="fill: rgb(0, 0, 0);">
<g>
	<circle cx="50" cy="50" r="30"/>
</g>
</g></g><g transform="translate(140,180) scale(0.1,0.1)"><g transform="" style="fill: rgb(0, 0, 0);">
<g>
	<circle cx="50" cy="50" r="30"/>
</g>
</g></g><g transform="translate(150,180) scale(0.1,0.1)"><g transform="" style="fill: rgb(0, 0, 0);">
<g>
	<circle cx="50" cy="50" r="30"/>
</g>
</g></g><g transform="translate(160,180) scale(0.1,0.1)"><g transform="" style="fill: rgb(0, 0, 0);">
<g>
	<circle cx="50" cy="50" r="30"/>
</g>
</g></g><g transform="translate(170,180) scale(0.1,0.1)"><g transform="" style="fill: rgb(0, 0, 0);">
<g>
	<circle cx="50" cy="50" r="30"/>
</g>
</g></g><g transform="translate(110,190) scale(0.1,0.1)"><g transform="" style="fill: rgb(0, 0, 0);">
<g>
	<circle cx="50" cy="50" r="30"/>
</g>
</g></g><g transform="translate(130,190) scale(0.1,0.1)"><g transform="" style="fill: rgb(0, 0, 0);">
<g>
	<circle cx="50" cy="50" r="30"/>
</g>
</g></g><g transform="translate(80,200) scale(0.1,0.1)"><g transform="" style="fill: rgb(0, 0, 0);">
<g>
	<circle cx="50" cy="50" r="30"/>
</g>
</g></g><g transform="translate(110,200) scale(0.1,0.1)"><g transform="" style="fill: rgb(0, 0, 0);">
<g>
	<circle cx="50" cy="50" r="30"/>
</g>
</g></g><g transform="translate(130,200) scale(0.1,0.1)"><g transform="" style="fill: rgb(0, 0, 0);">
<g>
	<circle cx="50" cy="50" r="30"/>
</g>
</g></g><g transform="translate(150,200) scale(0.1,0.1)"><g transform="" style="fill: rgb(0, 0, 0);">
<g>
	<circle cx="50" cy="50" r="30"/>
</g>
</g></g><g transform="translate(160,200) scale(0.1,0.1)"><g transform="" style="fill: rgb(0, 0, 0);">
<g>
	<circle cx="50" cy="50" r="30"/>
</g>
</g></g><g transform="translate(200,200) scale(0.1,0.1)"><g transform="" style="fill: rgb(0, 0, 0);">
<g>
	<circle cx="50" cy="50" r="30"/>
</g>
</g></g><g transform="translate(0,0) scale(0.7, 0.7)"><g transform="" style="fill: rgb(0, 0, 0);">
<g>
	<path style="fill:none;" d="M65.859,15.008H34.141c-4.082,0-7.869,1.258-10.979,3.398c-2.419,1.665-4.428,3.864-5.848,6.421
		C15.838,27.484,15,30.526,15,33.758v32.471c0,10.344,8.586,18.76,19.145,18.76L50,84.992l15.855-0.004
		C76.414,84.988,85,76.572,85,66.229V33.758C85,23.419,76.414,15.008,65.859,15.008z"/>
	<path d="M65.859,0.008H34.141h0C18.683,0.008,5.587,10.221,1.4,24.18c-0.433,1.444-0.771,2.928-1.006,4.445
		C0.135,30.299,0,32.013,0,33.758v32.471c0,18.619,15.32,33.76,34.141,33.76L50,99.992l15.859-0.004
		c18.82,0,34.141-15.141,34.141-33.76V33.758C100,15.148,84.68,0.008,65.859,0.008z M85,66.229c0,10.344-8.586,18.76-19.145,18.76
		L50,84.992l-15.855-0.004C23.586,84.988,15,76.572,15,66.229V33.758c0-3.231,0.838-6.273,2.313-8.931
		c1.42-2.557,3.429-4.756,5.848-6.421c3.11-2.141,6.897-3.398,10.979-3.398h31.719C76.414,15.008,85,23.419,85,33.758V66.229z"/>
</g>
</g></g><g transform="translate(140,0) scale(0.7, 0.7)"><g transform="" style="fill: rgb(0, 0, 0);">
<g>
	<path style="fill:none;" d="M65.859,15.008H34.141c-4.082,0-7.869,1.258-10.979,3.398c-2.419,1.665-4.428,3.864-5.848,6.421
		C15.838,27.484,15,30.526,15,33.758v32.471c0,10.344,8.586,18.76,19.145,18.76L50,84.992l15.855-0.004
		C76.414,84.988,85,76.572,85,66.229V33.758C85,23.419,76.414,15.008,65.859,15.008z"/>
	<path d="M65.859,0.008H34.141h0C18.683,0.008,5.587,10.221,1.4,24.18c-0.433,1.444-0.771,2.928-1.006,4.445
		C0.135,30.299,0,32.013,0,33.758v32.471c0,18.619,15.32,33.76,34.141,33.76L50,99.992l15.859-0.004
		c18.82,0,34.141-15.141,34.141-33.76V33.758C100,15.148,84.68,0.008,65.859,0.008z M85,66.229c0,10.344-8.586,18.76-19.145,18.76
		L50,84.992l-15.855-0.004C23.586,84.988,15,76.572,15,66.229V33.758c0-3.231,0.838-6.273,2.313-8.931
		c1.42-2.557,3.429-4.756,5.848-6.421c3.11-2.141,6.897-3.398,10.979-3.398h31.719C76.414,15.008,85,23.419,85,33.758V66.229z"/>
</g>
</g></g><g transform="translate(0,140) scale(0.7, 0.7)"><g transform="" style="fill: rgb(0, 0, 0);">
<g>
	<path style="fill:none;" d="M65.859,15.008H34.141c-4.082,0-7.869,1.258-10.979,3.398c-2.419,1.665-4.428,3.864-5.848,6.421
		C15.838,27.484,15,30.526,15,33.758v32.471c0,10.344,8.586,18.76,19.145,18.76L50,84.992l15.855-0.004
		C76.414,84.988,85,76.572,85,66.229V33.758C85,23.419,76.414,15.008,65.859,15.008z"/>
	<path d="M65.859,0.008H34.141h0C18.683,0.008,5.587,10.221,1.4,24.18c-0.433,1.444-0.771,2.928-1.006,4.445
		C0.135,30.299,0,32.013,0,33.758v32.471c0,18.619,15.32,33.76,34.141,33.76L50,99.992l15.859-0.004
		c18.82,0,34.141-15.141,34.141-33.76V33.758C100,15.148,84.68,0.008,65.859,0.008z M85,66.229c0,10.344-8.586,18.76-19.145,18.76
		L50,84.992l-15.855-0.004C23.586,84.988,15,76.572,15,66.229V33.758c0-3.231,0.838-6.273,2.313-8.931
		c1.42-2.557,3.429-4.756,5.848-6.421c3.11-2.141,6.897-3.398,10.979-3.398h31.719C76.414,15.008,85,23.419,85,33.758V66.229z"/>
</g>
</g></g><g transform="translate(20,20) scale(0.3, 0.3)"><g transform="" style="fill: rgb(0, 0, 0);">
<g>
	<g id="XMLID_1_">
		<g>
			<path d="M27.351,100c-15.09,0-27.365-12.032-27.365-26.808V26.794c0-4.616,1.2-8.96,3.301-12.761
				c2.029-3.658,4.901-6.802,8.36-9.174C16.09,1.801,21.506,0,27.336,0h45.327c15.076,0,27.351,12.018,27.351,26.793v46.398
				c0,14.775-12.274,26.808-27.351,26.808H50H27.351z"/>
		</g>
		<g>
		</g>
	</g>
</g>
</g></g><g transform="translate(160,20) scale(0.3, 0.3)"><g transform="" style="fill: rgb(0, 0, 0);">
<g>
	<g id="XMLID_1_">
		<g>
			<path d="M27.351,100c-15.09,0-27.365-12.032-27.365-26.808V26.794c0-4.616,1.2-8.96,3.301-12.761
				c2.029-3.658,4.901-6.802,8.36-9.174C16.09,1.801,21.506,0,27.336,0h45.327c15.076,0,27.351,12.018,27.351,26.793v46.398
				c0,14.775-12.274,26.808-27.351,26.808H50H27.351z"/>
		</g>
		<g>
		</g>
	</g>
</g>
</g></g><g transform="translate(20,160) scale(0.3, 0.3)"><g transform="" style="fill: rgb(0, 0, 0);">
<g>
	<g id="XMLID_1_">
		<g>
			<path d="M27.351,100c-15.09,0-27.365-12.032-27.365-26.808V26.794c0-4.616,1.2-8.96,3.301-12.761
				c2.029-3.658,4.901-6.802,8.36-9.174C16.09,1.801,21.506,0,27.336,0h45.327c15.076,0,27.351,12.018,27.351,26.793v46.398
				c0,14.775-12.274,26.808-27.351,26.808H50H27.351z"/>
		</g>
		<g>
		</g>
	</g>
</g>
</g></g></g></svg>